# xmcd
#
# Track frame offsets:
#	150
#	17792
#	34985
#	47377
#	61794
#	87768
#	105655
#	119389
#	139989
#	151148
#	164324
#	184981
#
# Disc length: 2837 seconds
#
# Revision: 0
# Processed by: cddbd v1.5.1PL0 Copyright (c) Steve Scherf et al.
# Submitted via: audiograbber 1.83.01
#
DISCID=960b130c
DTITLE=Tractors, The - The Tractors - Tractors, The - The Tractors
DYEAR=1994
DGENRE=Country
TTITLE0=The Tulsa Shuffle
TTITLE1=Fallin' Apart
TTITLE2=Thirty Days
TTITLE3=I've Had Enough
TTITLE4=The Little Man
TTITLE5=Baby Likes To Rock It
TTITLE6=Badly Bent
TTITLE7=The Blue Collar Rock
TTITLE8=Doreen
TTITLE9=Settin' The Woods On Fire
TTITLE10=Tryin' To Get To New Orleans
TTITLE11=The Tulsa Shuffle (Revisited)
EXTD=
EXTT0=
EXTT1=
EXTT2=
EXTT3=
EXTT4=
EXTT5=
EXTT6=
EXTT7=
EXTT8=
EXTT9=
EXTT10=
EXTT11=
PLAYORDER=
